<svg width="14" height="15" viewBox="0 0 14 15" fill="none" xmlns="http://www.w3.org/2000/svg">
<path fill-rule="evenodd" clip-rule="evenodd" d="M12.8976 6.64495H8.11738V1.86477C8.11738 1.33895 7.6872 0.908752 7.16138 0.908752C6.63557 0.908752 6.20539 1.33895 6.20539 1.86477V6.64495H1.42521C0.899391 6.64495 0.469116 7.07518 0.469116 7.601C0.469116 8.12682 0.899391 8.55704 1.42521 8.55704H6.20539V13.3372C6.20539 13.863 6.63557 14.2932 7.16138 14.2932C7.6872 14.2932 8.11738 13.863 8.11738 13.3372V8.55704H12.8976C13.4234 8.55704 13.8537 8.12682 13.8537 7.601C13.8537 7.07518 13.4234 6.64495 12.8976 6.64495Z" fill="black"/>
</svg>
